<svg xmlns="http://www.w3.org/2000/svg" width="24" height="24" viewBox="0 0 24 24"><path d="M24 4.557c-.883.391-1.832.654-2.828.775 1.017-.609 1.798-1.574 2.165-2.724-.951.563-2.005.974-3.127 1.195-.897-.956-2.178-1.555-3.594-1.555-2.719 0-4.924 2.205-4.924 4.924 0 .386.043.762.127 1.124-4.092-.205-7.719-2.165-10.148-5.144-.424.729-.666 1.577-.666 2.476 0 1.708.87 3.215 2.188 4.099-.807-.026-1.566-.247-2.228-.616v.062c0 2.385 1.697 4.374 3.95 4.827-.413.112-.849.172-1.296.172-.317 0-.626-.031-.928-.088.626 1.956 2.444 3.379 4.6 3.419-1.685 1.32-3.808 2.107-6.115 2.107-.397 0-.788-.023-1.175-.069 2.179 1.397 4.768 2.212 7.548 2.212 9.057 0 14.01-7.502 14.01-14.009 0-.213-.004-.425-.014-.637.962-.694 1.797-1.562 2.457-2.549z"/></svg>
